<svg width="24" height="24" viewBox="0 0 24 24" xmlns="http://www.w3.org/2000/svg">
  <path fill="#000000" d="M12 .297a12 12 0 0 0-3.8 23.412c.6.111.82-.26.82-.577v-2.2c-3.338.726-4.033-1.613-4.033-1.613a3.178 3.178 0 0 0-1.333-1.754c-1.089-.744.083-.729.083-.729a2.517 2.517 0 0 1 1.833 1.232 2.543 2.543 0 0 0 3.469.99 2.56 2.56 0 0 1 .764-1.608c-2.666-.3-5.466-1.334-5.466-5.933a4.641 4.641 0 0 1 1.233-3.218 4.307 4.307 0 0 1 .118-3.176s1.007-.324 3.3 1.23a11.37 11.37 0 0 1 6 0c2.29-1.555 3.296-1.23 3.296-1.23a4.308 4.308 0 0 1 .12 3.176 4.636 4.636 0 0 1 1.232 3.218c0 4.61-2.8 5.63-5.468 5.93a2.87 2.87 0 0 1 .822 2.226v3.3c0 .32.218.694.825.576A12.005 12.005 0 0 0 12 .297z"/>
</svg>
