<svg width="24" height="24" viewBox="0 0 24 24" fill="none" xmlns="http://www.w3.org/2000/svg"><path fill-rule="evenodd" clip-rule="evenodd" d="M12 3C9.55538 3 9.24938 3.01125 8.28975 3.054C7.33125 3.099 6.67875 3.24975 6.105 3.4725C5.51325 3.702 5.01038 4.01025 4.51087 4.51087C4.01025 5.01038 3.70087 5.51213 3.4725 6.105C3.24975 6.67875 3.09787 7.33125 3.054 8.28975C3.009 9.24938 3 9.55538 3 12C3 14.4446 3.01125 14.7506 3.054 15.7102C3.099 16.6687 3.24975 17.3224 3.4725 17.895C3.702 18.4868 4.01025 18.9896 4.51087 19.4891C5.01038 19.9897 5.51213 20.2991 6.105 20.5275C6.67875 20.7502 7.33125 20.9021 8.28975 20.946C9.24938 20.991 9.55538 21 12 21C14.4446 21 14.7506 20.9887 15.7102 20.946C16.6687 20.901 17.3224 20.7502 17.895 20.5275C18.4868 20.298 18.9896 19.9897 19.4891 19.4891C19.9897 18.9896 20.2991 18.4879 20.5275 17.895C20.7502 17.3213 20.9021 16.6687 20.946 15.7102C20.991 14.7506 21 14.4446 21 12C21 9.55538 20.9887 9.24938 20.946 8.28975C20.901 7.33125 20.7502 6.67762 20.5275 6.105C20.298 5.51325 19.9897 5.01038 19.4891 4.51087C18.9896 4.01025 18.4879 3.70087 17.895 3.4725C17.3213 3.24975 16.6687 3.09787 15.7102 3.054C14.7506 3.009 14.4446 3 12 3ZM12 4.62C14.403 4.62 14.6888 4.63125 15.6371 4.674C16.5146 4.7145 16.9905 4.86075 17.3077 4.9845C17.7285 5.14762 18.0278 5.34225 18.3427 5.65725C18.6577 5.97225 18.8524 6.2715 19.0155 6.69225C19.1392 7.0095 19.2855 7.48537 19.326 8.36287C19.3687 9.31238 19.3789 9.597 19.3789 12C19.3789 14.403 19.3676 14.6887 19.3226 15.6371C19.2776 16.5146 19.1314 16.9905 19.0076 17.3078C18.8389 17.7285 18.6476 18.0278 18.3326 18.3428C18.0176 18.6578 17.7139 18.8524 17.2976 19.0155C16.9826 19.1392 16.4989 19.2855 15.6214 19.326C14.6651 19.3687 14.3839 19.3789 11.9764 19.3789C9.56888 19.3789 9.28762 19.3676 8.33138 19.3226C7.45388 19.2776 6.97012 19.1314 6.65512 19.0076C6.22762 18.8389 5.93512 18.6476 5.62012 18.3326C5.30512 18.0176 5.10262 17.7139 4.94512 17.2976C4.82138 16.9826 4.67513 16.4989 4.63012 15.6214C4.59637 14.6764 4.58512 14.3839 4.58512 11.9876C4.58512 9.59138 4.59637 9.29887 4.63012 8.34262C4.67513 7.46513 4.82138 6.98137 4.94512 6.66637C5.10262 6.23887 5.30512 5.94637 5.62012 5.63137C5.93512 5.31638 6.22762 5.11387 6.65512 4.95638C6.97012 4.83263 7.44263 4.68638 8.32012 4.64137C9.27637 4.60763 9.55762 4.59637 11.9651 4.59637L12 4.62ZM12 7.3785C9.44625 7.3785 7.3785 9.4485 7.3785 12C7.3785 14.5538 9.4485 16.6215 12 16.6215C14.5538 16.6215 16.6215 14.5515 16.6215 12C16.6215 9.44625 14.5515 7.3785 12 7.3785ZM12 15.0004C10.3429 15.0004 8.99963 13.6571 8.99963 12C8.99963 10.3429 10.3429 8.99963 12 8.99963C13.6571 8.99963 15.0004 10.3429 15.0004 12C15.0004 13.6571 13.6571 15.0004 12 15.0004ZM17.8837 7.19625C17.8837 7.7925 17.4 8.27625 16.8038 8.27625C16.2075 8.27625 15.7238 7.7925 15.7238 7.19625C15.7238 6.6 16.2075 6.11625 16.8038 6.11625C17.4 6.11625 17.8837 6.6 17.8837 7.19625Z" fill="currentColor"></path></svg>