<svg width="24" height="24" viewBox="0 0 24 24" fill="none" xmlns="http://www.w3.org/2000/svg"><path d="M19.9869 7.3133C19.6721 7.3133 19.3705 7.28755 19.0689 7.22318C18.1639 7.03004 17.3508 6.56652 16.7475 5.90987C16.118 5.24034 15.6984 4.36481 15.6197 3.39914V3H14.7541H12.459V15.309C12.459 16.7382 11.2656 17.9099 9.79672 17.9099C8.93115 17.9099 8.17049 17.5107 7.68525 16.8798V16.867C7.33115 16.4163 7.14754 15.8627 7.14754 15.2961C7.14754 13.8541 8.34098 12.6953 9.80984 12.6953C10.0852 12.6953 10.3607 12.7339 10.6098 12.8112V9.66953C10.3082 9.6309 9.99344 9.60515 9.6918 9.61803C6.53115 9.6824 4 12.206 4 15.309C4 16.8541 4.62951 18.2704 5.65246 19.2876C6.70164 20.3433 8.17049 21 9.80984 21C13.023 21 15.6197 18.4506 15.6197 15.309V9.02575C16.8525 9.88841 18.3607 10.4034 20 10.4034V7.3133H19.9869Z" fill="currentColor"></path></svg>