<svg width="24" height="24" viewBox="0 0 24 24" fill="none" xmlns="http://www.w3.org/2000/svg"><path fill-rule="evenodd" clip-rule="evenodd" d="M19.8139 5.37539C20.6745 5.60686 21.3521 6.28893 21.5821 7.155C22.0001 8.72487 22.0001 12.0001 22.0001 12.0001C22.0001 12.0001 22.0001 15.2753 21.5821 16.8453C21.3521 17.7112 20.6745 18.3933 19.8139 18.6249C18.2543 19.0454 12.0001 19.0454 12.0001 19.0454C12.0001 19.0454 5.74603 19.0454 4.18639 18.6249C3.32586 18.3933 2.64814 17.7113 2.41819 16.8452C2.00024 15.2754 2.00024 12.0001 2.00024 12.0001C2.00024 12.0001 2.00024 8.72487 2.41819 7.155C2.64814 6.28893 3.32586 5.60686 4.18639 5.37539C5.74603 4.95471 12.0001 4.95471 12.0001 4.95471C12.0001 4.95471 18.2543 4.95471 19.8139 5.37539ZM15.1819 12.0001L9.95466 14.9737V9.02634L15.1819 12.0001Z" fill="currentColor"></path></svg>